# AST/ASF file generated using VICON BodyLanguage
# -----------------------------------------------
:version 1.10
:name VICON
:units
  mass 1.0
  length 0.45
  angle deg
:documentation
   .ast/.asf automatically generated from VICON data using
   VICON BodyBuilder and BodyLanguage model FoxedUp or BRILLIANT.MOD
:root
   order TX TY TZ RX RY RZ
   axis XYZ
   position 0 0 0  
   orientation 0 0 0 
:bonedata
  begin
     id 1 
     name lhipjoint
     direction 0.54267 -0.795011 0.271047 
     length 2.39899 
     axis 0 0 0  XYZ
  end
  begin
     id 2 
     name lfemur
     direction 0.34202 -0.939693 0  
     length 7.49701  
     axis 0 0 20  XYZ
    dof rx ry rz
    limits (-160.0 20.0)
           (-70.0 70.0)
           (-60.0 70.0)
  end
  begin
     id 3 
     name ltibia
     direction 0.34202 -0.939693 0   
     length 8.1668   
     axis 0 0 20   XYZ
    dof rx
    limits (-10.0 170.0)
  end
  begin
     id 4 
     name lfoot
     direction 0.0736283 -0.202292 0.976554   
     length 2.13544   
     axis -90 7.62852e-016 20   XYZ
    dof rx rz
    limits (-45.0 90.0)
           (-70.0 20.0)
  end
  begin
     id 5 
     name ltoes
     direction 1.53557e-011 -4.22024e-011 1   
     length 1.07411   
     axis -90 7.62852e-016 20   XYZ
    dof rx
    limits (-90.0 20.0)
  end
  begin
     id 6 
     name rhipjoint
     direction -0.538061 -0.797813 0.272002   
     length 2.39057  
     axis 0 0 0  XYZ 
  end
  begin
     id 7 
     name rfemur
     direction -0.34202 -0.939693 0   
     length 7.50152   
     axis 0 0 -20   XYZ
    dof rx ry rz
    limits (-160.0 20.0)
           (-70.0 70.0)
           (-70.0 60.0)
  end
  begin
     id 8 
     name rtibia
     direction -0.34202 -0.939693 0   
     length 8.05793   
     axis 0 0 -20   XYZ
    dof rx
    limits (-10.0 170.0)
 end
 begin
     id 9 
     name rfoot
     direction -0.0765195 -0.210236 0.974652   
     length 2.28698  
     axis -90 -7.62852e-016 -20   XYZ
    dof rx rz
    limits (-45.0 90.0)
           (-20.0 70.0)
  end
  begin
     id 10 
     name rtoes
     direction -1.53542e-011 -4.21847e-011 1   
     length 1.14762   
     axis -90 -7.62852e-016 -20   XYZ
    dof rx
    limits (-90.0 20.0)
  end
  begin
     id 11 
     name lowerback
     direction -0.0217239 0.996592 -0.0795765   
     length 2.08176   
     axis 0 0 0   XYZ
    dof rx ry rz
    limits (-20.0 45.0)
           (-30.0 30.0)
           (-30.0 30.0)
  end
  begin
     id 12 
     name upperback
     direction -0.00563773 0.999651 -0.0258155   
     length 2.08898   
     axis 0 0 0   XYZ
    dof rx ry rz
    limits (-20.0 45.0)
           (-30.0 30.0)
           (-30.0 30.0)
  end
  begin
     id 13 
     name thorax
     direction 0.0032706 0.999923 0.0119599   
     length 2.0968   
     axis 0 0 0   XYZ
    dof rx ry rz
    limits (-20.0 45.0)
           (-30.0 30.0)
           (-30.0 30.0)
  end
  begin
     id 14 
     name lowerneck
     direction -0.0285886 0.99568 0.0883427   
     length 1.81272   
     axis 0 0 0   XYZ
    dof rx ry rz
    limits (-20.0 45.0)
           (-30.0 30.0)
           (-30.0 30.0)
  end
  begin
     id 15 
     name upperneck
     direction 0.0807535 0.97985 -0.18268   
     length 1.82518   
     axis 0 0 0   XYZ
    dof rx ry rz
    limits (-20.0 45.0)
           (-30.0 30.0)
           (-30.0 30.0)
  end
  begin
     id 16
     name head
     direction 0.0236605 0.997053 -0.0729767  
     length 1.84443  
     axis 0 0 0   XYZ
    dof rx ry rz
    limits (-20.0 45.0)
           (-30.0 30.0)
           (-30.0 30.0)
  end
  begin
     id 17 
     name lclavicle
     direction 0.918986 0.39378 -0.0200683  
     length 3.27822  
     axis 0 0 0   XYZ
    dof ry rz
    limits (-20.0 10.0)
           (0.0 20.0)
  end
  begin
     id 18 
     name lhumerus
     direction 1 -4.4897e-011 2.09544e-027   
     length 5.5568   
     axis 180 -30 -90   XYZ
    dof rx ry rz
    limits (-60.0 90.0)
           (-90.0 90.0)
           (-90.0 90.0)
  end
  begin
     id 19
     name lradius
     direction 1 -4.48957e-011 -1.27696e-026   
     length 3.63979   
     axis 180 -30 -90   XYZ
    dof rx
    limits (-10.0 170.0)
  end
  begin
     id 20
     name lwrist
     direction 1 -4.49001e-011 -1.49001e-026   
     length 1.8199   
     axis 9.0955e-015 90 90   XYZ
    dof ry
    limits (-180.0 0.0)
 end
  begin
     id 21 
     name lhand
     direction 1 -4.48709e-011 -2.9758e-026   
     length 0.569419   
     axis 1.90115e-014 90 90   XYZ
    dof rx rz
    limits (-90.0 90.0)
           (-45.0 45.0)
  end
  begin
     id 22 
     name lfingers
     direction 1 -4.49175e-011 -5.96505e-026   
     length 0.45908   
     axis 3.80223e-014 90 90   XYZ
    dof rx
    limits (0.0 90.0)
  end
  begin
     id 23
     name lthumb
     direction 0.707107 -6.34864e-011 0.707107   
     length 0.65915   
     axis -90 45 -3.84942e-014   XYZ
    dof rx rz
    limits (-45.0 45.0)
           (-45.0 45.0)
  end
  begin
     id 24 
     name rclavicle
     direction -0.911913 0.396426 -0.106115   
     length 3.46301  
     axis 0 0 0   XYZ 
    dof ry rz
    limits (-10.0 20.0)
           (-20.0 0.0)
  end
  begin
     id 25 
     name rhumerus
     direction -1 -4.48965e-011 7.78516e-028  
     length 5.34339   
     axis 180 30 90   XYZ
    dof rx ry rz
    limits (-90.0 60.0)
           (-90.0 90.0)
           (-90.0 90.0)
  end
  begin
     id 26 
     name rradius
     direction -1 -4.48948e-011 -5.79823e-027   
     length 3.65101   
     axis 180 30 90   XYZ
    dof rx
    limits (-10.0 170.0)
  end
  begin
     id 27 
     name rwrist
     direction -1 -4.48995e-011 -1.48996e-026   
     length 1.8255   
     axis 9.0955e-015 -90 -90   XYZ
    dof ry
    limits (-180.0 0.0)
  end
  begin
     id 28
     name rhand
     direction -1 -4.48957e-011 -2.97937e-026   
     length 0.694249   
     axis 1.90115e-014 -90 -90   XYZ
    dof rx rz
    limits (-90.0 90.0)
           (-45.0 45.0)
  end
  begin
     id 29
     name rfingers
     direction -1 -4.4898e-011 -5.95943e-026   
     length 0.559721   
     axis 3.80223e-014 -90 -90   XYZ
    dof rx
    limits (0.0 90.0)
  end
  begin
     id 30
     name rthumb
     direction -0.707107 -6.34969e-011 0.707107   
     length 0.803651   
     axis -90 -45 3.84942e-014   XYZ
    dof rx rz
    limits (-45.0 45.0)
           (-45.0 45.0)
  end
:hierarchy
  begin
    root lhipjoint rhipjoint lowerback
    lhipjoint lfemur
    lfemur ltibia
    ltibia lfoot
    lfoot ltoes
    rhipjoint rfemur
    rfemur rtibia
    rtibia rfoot
    rfoot rtoes
    lowerback upperback
    upperback thorax
    thorax lowerneck lclavicle rclavicle
    lowerneck upperneck
    upperneck head
    lclavicle lhumerus
    lhumerus lradius
    lradius lwrist
    lwrist lhand lthumb
    lhand lfingers
    rclavicle rhumerus
    rhumerus rradius
    rradius rwrist
    rwrist rhand rthumb
    rhand rfingers
  end

#!OML:ASF H:\Terrain\Walking\May29\JustinRory\rory.ASF
:FULLY-SPECIFIED
:DEGREES
1
root 12.8183 18.4375 11.4959 -174.853 4.44623 177.557
lowerback -0.816712 2.43354 -0.215201
upperback 1.34793 3.28002 -0.74084
thorax 1.86964 1.64857 -0.557767
lowerneck -3.79808 2.5229 -0.136052
upperneck 8.22003 3.64334 -6.51374
head 3.47812 1.41785 -1.98191
rclavicle 1.6027e-014 7.15625e-015
rhumerus -39.3572 -15.037 -75.5294
rradius 33.2453
rwrist 4.27661
rhand -17.2982 31.7769
rfingers 7.12502
rthumb 8.94761 1.98665
lclavicle 1.6027e-014 7.15625e-015
lhumerus -40.1712 17.7202 71.3045
lradius 34.4845
lwrist 1.13757
lhand -18.3585 21.5336
lfingers 7.12502
lthumb 7.92433 51.365
rfemur -5.4364 6.32545 20.4743
rtibia 26.9438
rfoot -20.8655 -17.4447
rtoes 17.2735
lfemur -19.9911 -6.39204 -11.7844
ltibia 31.7986
lfoot -11.814 3.41005
ltoes -17.4523
2
root 12.8266 18.4265 11.5088 -174.863 4.29701 177.586
lowerback -0.648901 2.23012 -0.252476
upperback 1.34174 3.00758 -0.69998
thorax 1.76237 1.51192 -0.509503
lowerneck -4.42599 2.5815 -0.478047
upperneck 9.09933 3.75663 -5.98267
head 3.88717 1.44627 -1.74022
rclavicle -3.15571e-015 3.37934e-015
rhumerus -39.2485 -14.9632 -75.6412
rradius 33.086
rwrist 4.28342
rhand -17.2671 31.7137
rfingers 7.12502
rthumb 8.97765 1.92477
lclavicle -3.15571e-015 3.37934e-015
lhumerus -40.1079 17.9328 71.2404
lradius 34.6619
lwrist 0.510102
lhand -18.0521 21.024
lfingers 7.12502
lthumb 8.22005 50.8441
rfemur -5.57351 6.14856 20.575
rtibia 27.1904
rfoot -20.716 -17.607
rtoes 16.8499
lfemur -20.4726 -6.45051 -11.6895
ltibia 32.3579
lfoot -11.6004 3.38432
ltoes -16.2012
3
root 12.8391 18.4237 11.5157 -174.805 4.58354 177.651
lowerback -0.633278 2.25728 -0.286146
upperback 1.28009 3.04294 -0.720297
thorax 1.69 1.52889 -0.513051
lowerneck -4.57082 2.57791 -0.61077
upperneck 9.54381 3.74139 -5.45755
head 4.0531 1.44473 -1.54157
rclavicle 2.52953e-014 -9.74045e-015
rhumerus -39.4432 -15.2754 -75.5616
rradius 32.9205
rwrist 4.2923
rhand -16.7824 32.4767
rfingers 7.12502
rthumb 9.44535 2.70839
lclavicle 2.52953e-014 -9.74045e-015
lhumerus -40.0006 17.6249 71.3782
lradius 34.8444
lwrist 0.506654
lhand -18.5991 21.5032
lfingers 7.12502
lthumb 7.69216 51.3433
rfemur -5.73973 6.43931 20.6479
rtibia 27.3014
rfoot -20.7688 -17.496
rtoes 17.6854
lfemur -20.982 -6.12161 -11.6199
ltibia 33.1755
lfoot -11.332 3.46231
ltoes -16.7252
4
root 12.8534 18.4263 11.5231 -174.801 4.95715 177.555
lowerback -0.558663 2.36099 -0.523643
upperback 1.20837 3.18398 -0.76945
thorax 1.56564 1.59694 -0.433523
lowerneck -4.06546 1.99345 -0.522667
upperneck 8.92025 2.91606 -5.38917
head 3.70813 1.07546 -1.57058
rclavicle -3.34207e-014 4.37326e-015
rhumerus -39.7511 -15.7838 -75.3403
rradius 32.7855
rwrist 4.50103
rhand -16.8154 32.6742
rfingers 7.12502
rthumb 9.41348 2.90443
lclavicle -3.34207e-014 4.37326e-015
lhumerus -39.9454 16.8718 71.7854
lradius 35.1526
lwrist 1.04042
lhand -19.7968 22.7794
lfingers 7.12502
lthumb 6.53598 52.6585
rfemur -5.83822 6.78016 20.5364
rtibia 27.3619
rfoot -20.818 -17.3819
rtoes 17.915
lfemur -21.4204 -5.73146 -11.7189
ltibia 33.9699
lfoot -10.8602 3.52596
ltoes -17.351
5
root 12.8626 18.4318 11.527 -174.762 5.20681 177.449
lowerback -0.513526 2.31882 -0.740059
upperback 1.22922 3.13095 -0.751464
thorax 1.54892 1.56812 -0.29724
lowerneck -3.3995 1.33234 -0.128635
upperneck 7.43425 1.98815 -5.94478
head 3.05583 0.665991 -1.84978
rclavicle -2.77305e-014 5.36719e-015
rhumerus -39.6043 -16.0315 -75.2764
rradius 32.5599
rwrist 4.72858
rhand -17.7057 32.0727
rfingers 7.12502
rthumb 8.55435 2.26594
lclavicle -2.77305e-014 5.36719e-015
lhumerus -39.9357 16.5359 72.1195
lradius 35.6297
lwrist 1.46665
lhand -18.7057 23.0656
lfingers 7.12502
lthumb 7.58925 52.9094
rfemur -5.93634 6.90737 20.4136
rtibia 27.3922
rfoot -20.7039 -17.3538
rtoes 17.6168
lfemur -21.9802 -5.32261 -11.8165
ltibia 34.8629
lfoot -10.4304 3.3807
ltoes -17.6578
6
root 12.8677 18.4343 11.5261 -174.767 5.20042 177.466
lowerback -0.487767 2.10389 -0.822984
upperback 1.39299 2.84755 -0.632203
thorax 1.69213 1.42493 -0.131347
lowerneck -5.12666 1.65722 -0.832382
upperneck 9.25834 2.52883 -5.25046
head 4.01632 0.85951 -1.48779
rclavicle -1.25234e-014 2.98177e-015
rhumerus -39.0091 -15.9309 -75.4213
rradius 32.1628
rwrist 4.7125
rhand -18.4685 32.0329
rfingers 7.12502
rthumb 7.81819 2.19741
lclavicle -1.25234e-014 2.98177e-015
lhumerus -39.7915 16.7558 72.3444
lradius 36.0094
lwrist 1.62497
lhand -17.6331 22.1346
lfingers 7.12502
lthumb 8.62437 51.9384
rfemur -5.90806 7.07265 20.4925
rtibia 27.4243
rfoot -20.8594 -17.4313
rtoes 18.3122
lfemur -22.539 -4.99101 -11.7803
ltibia 35.8193
lfoot -10.0392 3.08794
ltoes -17.8348
7
root 12.8703 18.4246 11.5266 -174.985 5.00192 177.558
lowerback -0.211711 1.82518 -0.824045
upperback 1.60197 2.47696 -0.462806
thorax 1.74505 1.24019 0.0300392
lowerneck -6.11115 1.75213 -1.39821
upperneck 10.0181 2.72503 -4.7754
head 4.47085 0.92342 -1.21914
rclavicle 1.55549e-014 -1.64991e-014
rhumerus -38.5068 -15.6914 -75.5351
rradius 31.8197
rwrist 4.6829
rhand -18.524 32.6327
rfingers 7.12502
rthumb 7.76461 2.79524
lclavicle 1.55549e-014 -1.64991e-014
lhumerus -39.6263 17.052 72.6102
lradius 36.3082
lwrist 1.65085
lhand -20.352 23.4075
lfingers 7.12502
lthumb 5.99994 53.3025
rfemur -5.61001 7.29259 20.7207
rtibia 27.4483
rfoot -21.1651 -17.5825
rtoes 19.5076
lfemur -22.9048 -5.09835 -11.6513
ltibia 36.8221
lfoot -9.59668 3.06026
ltoes -18.1652
8
root 12.8702 18.4161 11.5249 -175.177 5.04362 177.545
lowerback 0.0738782 1.72603 -0.862085
upperback 1.6281 2.34331 -0.42056
thorax 1.60909 1.17407 0.0830556
lowerneck -6.37281 1.68715 -1.54387
upperneck 10.4189 2.65428 -4.65186
head 4.66383 0.870557 -1.15799
rclavicle -9.24349e-015 -4.57205e-015
rhumerus -38.6309 -15.619 -75.4896
rradius 31.7719
rwrist 4.57101
rhand -18.2405 32.5012
rfingers 7.12502
rthumb 8.03825 2.67404
lclavicle -9.24349e-015 -4.57205e-015
lhumerus -39.6721 16.9331 72.8088
lradius 36.5597
lwrist 1.72901
lhand -23.0641 25.2864
lfingers 7.12502
lthumb 3.38117 55.2393
rfemur -5.4049 7.31233 20.7378
rtibia 27.4718
rfoot -21.1427 -17.536
rtoes 19.6331
lfemur -23.3012 -5.31166 -11.6203
ltibia 37.8665
lfoot -9.22121 3.19089
ltoes -17.5245
9
root 12.8682 18.4152 11.5227 -175.283 5.24587 177.599
lowerback 0.318954 1.74173 -0.76919
upperback 1.55617 2.35908 -0.421697
thorax 1.40147 1.18383 0.0203163
lowerneck -6.33839 1.57705 -1.54486
upperneck 11.0727 2.52111 -4.72508
head 4.40085 0.770201 -1.066
rclavicle -3.31473e-014 3.97569e-015
rhumerus -39.0289 -15.6495 -75.4268
rradius 31.8665
rwrist 4.3988
rhand -18.564 31.1784
rfingers 7.12502
rthumb 7.72603 1.33957
lclavicle -3.31473e-014 3.97569e-015
lhumerus -39.7617 16.7307 72.9024
lradius 36.6545
lwrist 1.64302
lhand -21.389 21.2049
lfingers 7.12502
lthumb 4.99877 51.126
rfemur -5.3339 7.06299 20.7375
rtibia 27.4939
rfoot -21.0815 -17.3028
rtoes 19.0171
lfemur -23.8233 -5.23892 -11.5372
ltibia 38.997
lfoot -8.90854 3.07293
ltoes -16.0429
10
root 12.8668 18.4147 11.5252 -175.397 5.36488 177.853
lowerback 0.597546 1.69198 -0.467321
upperback 1.58052 2.28957 -0.343874
thorax 1.27909 1.15324 -0.0780345
lowerneck -6.33596 1.12185 -1.67311
upperneck 10.6233 2.53965 -4.43071
head 4.72526 1.09003 -1.04488
rclavicle 1.67476e-014 3.77691e-015
rhumerus -39.2225 -15.5597 -75.4766
rradius 31.9358
rwrist 4.28466
rhand -19.2619 30.9431
rfingers 7.12502
rthumb 7.05233 1.08061
lclavicle 1.67476e-014 3.77691e-015
lhumerus -39.684 16.6316 73.0746
lradius 36.799
lwrist 1.4987
lhand -16.7149 16.5813
lfingers 7.12502
lthumb 9.51047 46.3466
rfemur -5.22122 6.7784 20.9719
rtibia 27.4741
rfoot -21.1379 -17.0452
rtoes 18.6212
lfemur -24.3984 -5.03065 -11.2505
ltibia 40.1967
lfoot -8.55138 2.87109
ltoes -13.8092
11
root 12.8672 18.4162 11.5261 -175.324 5.64995 178.036
lowerback 0.681603 1.70178 -0.259469
upperback 1.55386 2.30032 -0.30608
thorax 1.21118 1.16059 -0.158755
lowerneck -6.26262 1.15655 -1.81057
upperneck 10.4709 2.54201 -4.1529
head 4.64583 1.09725 -0.924929
rclavicle -4.96962e-017 -4.77083e-015
rhumerus -39.3384 -15.5947 -75.551
rradius 31.8834
rwrist 4.29636
rhand -19.1827 32.094
rfingers 7.12502
rthumb 7.12881 2.23407
lclavicle -4.96962e-017 -4.77083e-015
lhumerus -39.5931 16.2984 73.3365
lradius 37.0309
lwrist 1.53419
lhand -18.7937 19.2599
lfingers 7.12502
lthumb 7.50431 49.1068
rfemur -5.32111 6.48984 21.0545
rtibia 27.4177
rfoot -20.9932 -16.5322
rtoes 18.3509
lfemur -25.1487 -4.69224 -11.0308
ltibia 41.4229
lfoot -8.2082 2.79048
ltoes -12.0289
12
root 12.8682 18.4191 11.5249 -175.053 6.10264 178.154
lowerback 0.660787 1.78545 -0.146088
upperback 1.3942 2.40607 -0.313548
thorax 1.06435 1.21266 -0.231961
lowerneck -6.33609 1.13844 -1.71118
upperneck 10.6452 2.51264 -4.0945
head 4.72475 1.08576 -0.925033
rclavicle -2.13694e-014 8.94531e-015
rhumerus -39.5138 -15.669 -75.6333
rradius 31.8207
rwrist 4.32918
rhand -18.7799 32.8561
rfingers 7.12502
rthumb 7.51758 3.00968
lclavicle -2.13694e-014 8.94531e-015
lhumerus -39.6205 15.9941 73.5167
lradius 37.2128
lwrist 1.45844
lhand -20.4667 19.7775
lfingers 7.12502
lthumb 5.88928 49.6757
rfemur -5.6777 6.28446 21.0156
rtibia 27.401
rfoot -20.7561 -16.003
rtoes 18.0031
lfemur -26.0792 -4.30055 -10.8731
ltibia 42.6456
lfoot -7.77742 2.79083
ltoes -11.6434
13
root 12.8666 18.4115 11.5249 -174.944 6.46229 178.45
lowerback 0.752051 1.8209 0.150588
upperback 1.35778 2.45159 -0.253775
thorax 0.985865 1.23759 -0.340366
lowerneck -6.4608 1.0775 -1.76347
upperneck 11.2194 2.45221 -4.01459
head 4.45588 1.0379 -0.793806
rclavicle -7.45443e-016 -7.7526e-015
rhumerus -39.4999 -15.6405 -75.7746
rradius 31.7226
rwrist 4.12994
rhand -18.9573 32.8853
rfingers 7.12502
rthumb 7.34635 3.03284
lclavicle -7.45443e-016 -7.7526e-015
lhumerus -39.603 15.9812 73.6368
lradius 37.4086
lwrist 1.21635
lhand -21.1578 19.5126
lfingers 7.12502
lthumb 5.22203 49.4283
rfemur -5.82843 6.36349 21.2781
rtibia 27.4348
rfoot -20.5301 -15.9851
rtoes 17.215
lfemur -26.8597 -4.0554 -10.5264
ltibia 43.829
lfoot -7.34222 2.77519
ltoes -11.1459
14
root 12.8601 18.3944 11.5203 -175.051 6.68618 178.805
lowerback 0.866897 1.81862 0.560883
upperback 1.50214 2.45331 -0.153322
thorax 1.08227 1.24454 -0.467589
lowerneck -6.5496 1.02029 -1.88696
upperneck 10.8234 2.33437 -3.73294
head 4.82212 0.998823 -0.780828
rclavicle 6.70898e-015 -5.56597e-015
rhumerus -39.3139 -15.5537 -75.9608
rradius 31.6095
rwrist 3.77505
rhand -19.3726 31.9219
rfingers 7.12502
rthumb 6.94544 2.05587
lclavicle 6.70898e-015 -5.56597e-015
lhumerus -39.4698 15.9557 73.839
lradius 37.7251
lwrist 0.989155
lhand -21.0618 19.9423
lfingers 7.12502
lthumb 5.31467 49.8557
rfemur -5.6854 6.48343 21.66
rtibia 27.4504
rfoot -20.5148 -16.1094
rtoes 15.8812
lfemur -27.39 -4.01603 -10.1311
ltibia 44.9757
lfoot -7.24596 2.79142
ltoes -11.6887
15
root 12.8546 18.3808 11.5126 -175.098 6.84205 179.172
lowerback 0.999158 1.78567 0.976775
upperback 1.5962 2.41435 -0.0420591
thorax 1.11655 1.23122 -0.58866
lowerneck -6.70053 1.05468 -1.88208
upperneck 11.1713 2.39073 -3.77656
head 4.47634 1.00587 -0.704106
rclavicle 2.07233e-014 1.19271e-015
rhumerus -39.3218 -14.9766 -76.3088
rradius 31.8488
rwrist 3.12372
rhand -20.1054 30.6185
rfingers 7.12502
rthumb 6.23804 0.730305
lclavicle 2.07233e-014 1.19271e-015
lhumerus -39.4735 15.6897 74.0673
lradius 38.2901
lwrist 0.947375
lhand -20.5612 20.7744
lfingers 7.12502
lthumb 5.79803 50.6751
rfemur -5.57441 6.54527 22.0373
rtibia 27.4424
rfoot -20.735 -15.9811
rtoes 15.454
lfemur -27.9286 -4.06583 -9.70211
ltibia 46.0345
lfoot -7.52197 2.97106
ltoes -13.3072
